HIERARCHY
ROOT Hips
{
	OFFSET 0.000000 0.000000 0.000000 
	CHANNELS 6 Xposition Yposition Zposition Yrotation Zrotation Xrotation 
	JOINT Lumbar
	{
		OFFSET 0.000000 0.000000 0.000000 
		CHANNELS 3 Zrotation Xrotation Yrotation
		JOINT Neck
		{
			OFFSET 0.000000 0.445665 0.000000 
			CHANNELS 3 Zrotation Xrotation Yrotation
			End Site
			{
				OFFSET 0.000000 0.227535 0.000000 
			}
		}
		JOINT RightShoulder
		{
			OFFSET 0.019635 0.377685 0.194865 
			CHANNELS 3 Zrotation Xrotation Yrotation
			JOINT RightElbow
			{
				OFFSET 0.000000 -0.243375 0.000000 
				CHANNELS 2 Zrotation Yrotation
				JOINT RightWrist
				{
					OFFSET 0.000000 -0.264825 0.000000 
					CHANNELS 2 Zrotation Xrotation
					End Site
					{
						OFFSET 0.006600 -0.176220 0.000990 
					}
				}
			}
		}
		JOINT LeftShoulder
		{
			OFFSET 0.019635 0.377685 -0.194865 
			CHANNELS 3 Zrotation Xrotation Yrotation
			JOINT LeftElbow
			{
				OFFSET 0.000000 -0.243375 0.000000 
				CHANNELS 2 Zrotation Yrotation
				JOINT LeftWrist
				{
					OFFSET 0.000000 -0.264825 0.000000 
					CHANNELS 2 Zrotation Xrotation
					End Site
					{
						OFFSET 0.006600 -0.176220 -0.000990 
					}
				}
			}
		}
	}
	JOINT RightHip
	{
		OFFSET 0.052140 -0.069960 0.075570 
		CHANNELS 3 Zrotation Xrotation Yrotation
		JOINT RightKnee
		{
			OFFSET 0.000000 -0.402270 0.000000 
			CHANNELS 1 Zrotation
			JOINT RightAnkle
			{
				OFFSET 0.000000 -0.404085 0.000000 
				CHANNELS 3 Zrotation Xrotation Yrotation
				End Site
				{
					OFFSET 0.204105 -0.089430 0.008415 
				}
			}
		}
	}
	JOINT LeftHip
	{
		OFFSET 0.052140 -0.069960 -0.075570 
		CHANNELS 3 Zrotation Xrotation Yrotation
		JOINT LeftKnee
		{
			OFFSET 0.000000 -0.402270 0.000000 
			CHANNELS 1 Zrotation
			JOINT LeftAnkle
			{
				OFFSET 0.000000 -0.404085 0.000000 
				CHANNELS 3 Zrotation Xrotation Yrotation
				End Site
				{
					OFFSET 0.204105 -0.089430 -0.008415 
				}
			}
		}
	}
}
MOTION
Frames: 28
Frame Time: 0.02
-0.38578 -0.42359 0.19578 28.55332 5.47736 -7.31946 14.6624 1.48489 -10.79305 -35.21429 10.69254 -2.11903 52.79945 -52.13054 45.58183 112.70011 79.06685 27.93405 -3.31761 4.02103 1.55618 -50.14359 84.6111 -110.09664 -17.89096 9.89572 84.50427 -17.40113 -8.1575 -88.44394 -10.32457 -3.87773 -4.32161 84.56638 16.21066 6.12371 -95.05571 -8.3002 3.69933 4.12584
-0.38589 -0.42388 0.19567 28.50497 5.48503 -7.52259 14.57925 1.48654 -10.98969 -35.4291 10.66225 -2.11903 52.24431 -52.97055 45.1994 113.74204 78.64119 27.6834 -3.37663 3.31062 1.06904 -49.65175 84.41467 -105.93745 -15.65208 9.52348 84.4094 -17.35717 -8.4093 -88.42891 -10.30948 -3.87094 -4.31673 84.67692 16.33968 5.92036 -95.13978 -8.29479 3.69392 4.12205
-0.38579 -0.42424 0.19542 28.44588 5.41102 -7.76408 14.57423 1.57706 -11.26964 -35.59922 10.40554 -2.11903 51.74536 -54.08136 45.17956 115.23259 77.01102 27.28586 -3.60827 2.51646 0.63839 -48.82776 84.31164 -99.19687 -12.05323 8.9258 84.38308 -17.31526 -8.70737 -88.45529 -10.28001 -3.86135 -4.30975 84.88966 16.51059 5.67981 -95.27568 -8.28338 3.68566 4.11613
-0.38578 -0.42456 0.19521 28.38142 5.38056 -7.984 14.53109 1.6272 -11.51183 -35.78996 10.24898 -2.11904 51.27647 -55.03245 45.0473 116.45971 75.92639 26.94886 -3.764 1.78629 0.20813 -48.18139 84.17689 -93.89194 -9.22001 8.45173 84.31987 -17.27162 -8.98845 -88.4605 -10.25671 -3.85281 -4.30358 85.04795 16.66525 5.45635 -95.38822 -8.27501 3.6792 4.11151
-0.38576 -0.42491 0.19511 28.35915 5.32433 -8.22213 14.49693 1.67862 -11.75336 -35.98008 10.10211 -2.11904 50.56024 -56.1448 44.69033 117.93706 74.85914 26.61665 -3.91155 0.96412 -0.32148 -47.43161 83.99764 -87.58123 -5.81855 7.89707 84.27879 -17.23149 -9.25489 -88.47526 -10.23486 -3.8452 -4.298 85.23893 16.80994 5.23159 -95.5005 -8.26533 3.67065 4.10554
-0.38572 -0.42522 0.19475 28.24704 5.30136 -8.43124 14.46392 1.74818 -12.01585 -36.15971 9.88151 -2.11904 50.37162 -56.9812 44.87987 118.99798 73.48219 26.24944 -4.11363 0.3072 -0.63518 -46.81408 83.93318 -82.70511 -3.25136 7.45246 84.20929 -17.18451 -9.56146 -88.48015 -10.20667 -3.83501 -4.29072 85.38709 16.98404 5.00081 -95.62535 -8.257 3.66578 4.10187
-0.38562 -0.42541 0.19374 27.88788 5.39618 -8.54986 14.40879 1.8437 -12.31952 -36.33243 9.5178 -2.11905 51.69737 -57.01451 46.60321 118.82975 71.33936 25.80181 -4.45609 0.12407 -0.36224 -46.6517 84.16021 -82.52007 -3.38581 7.37864 84.03698 -17.11769 -9.97267 -88.44718 -10.16395 -3.81842 -4.27919 85.38504 17.23668 4.76368 -95.77291 -8.25315 3.67139 4.10491
-0.3855 -0.42556 0.19249 27.43944 5.52602 -8.63816 14.35347 1.95475 -12.64072 -36.49409 9.0863 -2.11905 53.54131 -56.75702 48.84574 118.22411 68.95751 25.33062 -4.84203 0.10801 0.12375 -46.63099 84.49984 -83.83644 -4.38761 7.4203 83.83525 -17.04385 -10.42126 -88.40298 -10.1155 -3.79934 -4.26605 85.33776 17.51589 4.52164 -95.93106 -8.25097 3.68084 4.11036
-0.38539 -0.42573 0.19133 27.03264 5.63584 -8.74067 14.30253 2.05987 -12.95167 -36.65356 8.6839 -2.11906 55.10443 -56.61351 50.77711 117.79629 66.81992 24.88583 -5.18648 0.01509 0.50794 -46.53856 84.78956 -84.38743 -4.94266 7.40001 83.6522 -16.97363 -10.84931 -88.3643 -10.07003 -3.78136 -4.2537 85.31583 17.77782 4.28121 -96.0839 -8.24848 3.68879 4.11486
-0.38526 -0.4259 0.19021 26.61957 5.7603 -8.84211 14.23621 2.16286 -13.27552 -36.84197 8.28408 -2.11906 56.86173 -56.54974 53.03481 117.46299 64.0816 24.36887 -5.62664 -0.07583 0.91539 -46.46587 85.07743 -85.19975 -5.67334 7.41101 83.44934 -16.90213 -11.2947 -88.32533 -10.02235 -3.76335 -4.24101 85.27718 18.06326 4.04216 -96.24092 -8.24393 3.69567 4.11874
-0.38519 -0.42604 0.18897 26.20022 5.86347 -8.93884 14.20078 2.27342 -13.57516 -36.968 7.86157 -2.11907 58.33548 -56.25548 54.73593 116.83512 62.53653 23.99918 -5.8781 -0.13104 1.3241 -46.38975 85.39439 -85.85879 -6.26148 7.38839 83.27956 -16.831 -11.71137 -88.28369 -9.97826 -3.74493 -4.22871 85.26134 18.30544 3.79946 -96.39075 -8.24412 3.70565 4.12444
-0.38533 -0.4261 0.18743 25.77065 5.90129 -9.02291 14.25081 2.39531 -13.80668 -36.92516 7.42951 -2.11907 58.91337 -55.32211 54.73317 115.39453 64.49509 24.03771 -5.57523 -0.12152 1.68446 -46.27328 85.76595 -85.72618 -6.25068 7.23507 83.21053 -16.76793 -12.04696 -88.23792 -9.94419 -3.72541 -4.21749 85.31815 18.42165 3.54896 -96.52065 -8.25713 3.72407 4.13508
-0.38553 -0.42611 0.18578 25.34057 5.91674 -9.10418 14.33135 2.52485 -14.01209 -36.82 6.97102 -2.11908 59.18574 -54.17792 54.1581 113.68944 67.64104 24.22616 -5.08455 -0.08264 2.03834 -46.14959 86.162 -85.40058 -6.07217 7.04682 83.17491 -16.70466 -12.35085 -88.18954 -9.91426 -3.70567 -4.2068 85.39897 18.4931 3.29503 -96.64222 -8.27487 3.74534 4.14738
-0.3857 -0.42614 0.1842 24.92052 5.94119 -9.19143 14.39763 2.65431 -14.2273 -36.74319 6.50216 -2.11909 59.58794 -53.17889 53.86935 112.17382 70.15049 24.35042 -4.6935 -0.06155 2.39469 -46.0282 86.54526 -85.17659 -5.97234 6.88203 83.12241 -16.63769 -12.66406 -88.14182 -9.88336 -3.68645 -4.19612 85.46952 18.58492 3.04208 -96.76572 -8.29037 3.76477 4.15861
-0.3859 -0.42619 0.18251 24.45627 5.97069 -9.25868 14.46627 2.77026 -14.45263 -36.66594 6.12635 -2.1191 60.04406 -51.96687 53.48792 110.35381 73.05851 24.45996 -4.24278 -0.01638 2.76057 -45.91503 86.93986 -84.94397 -5.89047 6.6892 83.0767 -16.58561 -12.99964 -88.09597 -9.8484 -3.66542 -4.18432 85.53689 18.67794 2.79107 -96.89751 -8.30628 3.78657 4.17125
-0.38605 -0.42619 0.18104 24.08477 5.98519 -9.36619 14.5364 2.91567 -14.64951 -36.57483 5.55005 -2.1191 60.31143 -51.1455 53.15717 109.10688 75.4233 24.6325 -3.87244 -0.01598 3.10223 -45.78201 87.31474 -84.66512 -5.72157 6.54488 83.02436 -16.50366 -13.28115 -88.04576 -9.82294 -3.64809 -4.17498 85.61586 18.75703 2.53564 -97.00985 -8.32249 3.80412 4.18134
-0.38602 -0.42604 0.1802 23.97337 5.95273 -9.59552 14.61041 3.14276 -14.78197 -36.46163 4.4395 -2.11911 60.1033 -51.51088 53.09732 109.5393 75.98764 24.97365 -3.75756 -0.15167 3.37764 -45.58907 87.632 -84.29595 -5.34043 6.54385 82.9528 -16.32956 -13.41563 -87.98393 -9.82291 -3.64141 -4.17261 85.73262 18.81221 2.26604 -97.07061 -8.33796 3.80889 4.18373
-0.38594 -0.42586 0.17959 23.95523 5.90768 -9.86386 14.6836 3.39871 -14.88521 -36.33633 3.12692 -2.11912 59.71736 -52.26638 53.10537 110.55246 75.96882 25.36738 -3.73136 -0.3331 3.62791 -45.37707 87.92735 -83.88225 -4.87624 6.5921 82.87236 -16.1271 -13.49736 -87.91781 -9.8323 -3.63842 -4.17267 85.85848 18.85419 1.99284 -97.11187 -8.35365 3.8093 4.18353
-0.38589 -0.42571 0.17889 23.89214 5.87563 -10.10785 14.75232 3.63994 -14.99661 -36.21626 1.89762 -2.11913 59.43082 -52.80917 53.08801 111.2824 76.22308 25.71655 -3.6735 -0.49117 3.88931 -45.17754 88.2304 -83.48709 -4.45365 6.61679 82.79117 -15.94424 -13.6069 -87.854 -9.83721 -3.63349 -4.17141 85.97248 18.89961 1.72294 -97.16211 -8.36951 3.81191 4.18467
-0.38581 -0.4255 0.17813 23.83919 5.81271 -10.37933 14.84221 3.88834 -15.12854 -36.09594 0.6998 -2.11913 59.06048 -53.49877 53.03576 112.08951 76.47904 26.15792 -3.57591 -0.65965 4.1522 -44.9615 88.54429 -83.09008 -4.00724 6.64543 82.73068 -15.73368 -13.70014 -87.789 -9.843 -3.6296 -4.171 86.11904 18.95397 1.44517 -97.21212 -8.38438 3.81377 4.18518
-0.38578 -0.42541 0.17754 23.78805 5.8106 -10.60333 14.88788 4.1284 -15.21133 -35.97307 -0.60671 -2.11914 58.82007 -53.97196 53.06997 112.87081 76.58445 26.41811 -3.58049 -0.81688 4.40564 -44.77574 88.82957 -82.69269 -3.59558 6.67774 82.62536 -15.57326 -13.81399 -87.72497 -9.84929 -3.6245 -4.16946 86.2007 18.98754 1.18386 -97.25741 -8.40134 3.81606 4.18635
-0.38589 -0.42568 0.17732 23.71287 5.98619 -10.6827 14.80748 4.33951 -15.16375 -35.855 -2.20218 -2.11915 59.04061 -53.80801 53.41609 113.49715 76.34895 26.16112 -3.88252 -0.93952 4.64244 -44.6753 89.04545 -82.26846 -3.27489 6.71049 82.39136 -15.56568 -14.00827 -87.66913 -9.85333 -3.61448 -4.16369 86.09204 18.96375 0.96156 -97.29998 -8.42368 3.82108 4.19026
-0.38607 -0.42608 0.17726 23.6376 6.22207 -10.71372 14.68332 4.54094 -15.06823 -35.73332 -3.89264 -2.11916 59.3914 -53.4054 53.83605 114.0685 75.98653 25.71974 -4.27908 -1.04812 4.86998 -44.60659 89.23255 -81.85215 -2.9968 6.74509 82.11387 -15.60834 -14.22333 -87.61359 -9.85777 -3.60323 -4.1568 85.91945 18.92026 0.75738 -97.33743 -8.44812 3.82657 4.19485
-0.38624 -0.42641 0.17714 23.56629 6.4263 -10.76953 14.58165 4.74603 -14.99592 -35.608 -5.51456 -2.11917 59.64194 -53.07402 54.16217 114.62738 75.72367 25.36499 -4.60812 -1.1581 5.09963 -44.52526 89.42967 -81.45827 -2.71749 6.7773 81.86055 -15.62288 -14.42203 -87.555 -9.86287 -3.59297 -4.15076 85.78162 18.88815 0.54968 -97.37366 -8.47179 3.83152 4.19894
-0.38633 -0.42677 0.17698 23.48114 6.64881 -10.81483 14.46861 4.95537 -14.91641 -35.50509 -7.25125 -2.11917 60.04776 -52.90529 54.73196 115.3622 75.27373 25.00123 -5.04084 -1.29022 5.33731 -44.43553 89.6382 -80.95659 -2.36159 6.8172 81.58769 -15.65801 -14.6479 -87.50854 -9.86476 -3.58105 -4.14336 85.61935 18.84552 0.32177 -97.4243 -8.49477 3.83772 4.20376
-0.38659 -0.42709 0.17693 23.42429 6.84673 -10.87 14.36933 5.15302 -14.84111 -35.35405 -8.76805 -2.11918 60.17807 -52.34609 54.82704 115.71285 75.17908 24.61046 -5.28267 -1.37301 5.55632 -44.37126 89.81735 -80.67721 -2.1727 6.84157 81.34611 -15.66348 -14.82301 -87.43699 -9.87331 -3.57223 -4.13847 85.49352 18.82002 0.14055 -97.4438 -8.5196 3.84145 4.20723
-0.38733 -0.4273 0.17716 23.43912 6.97103 -10.96408 14.31455 5.3219 -14.78708 -35.07773 -9.65923 -2.11919 59.38918 -50.67965 53.45285 114.98967 76.19896 24.20082 -4.94172 -1.31605 5.72711 -44.36917 89.91403 -81.05132 -2.46832 6.81905 81.19458 -15.56722 -14.85139 -87.29586 -9.89998 -3.57228 -4.14088 85.47647 18.84945 0.08222 -97.38022 -8.54978 3.83868 4.20716
-0.38823 -0.42745 0.17751 23.48322 7.06703 -11.06949 14.27577 5.47894 -14.73918 -34.75205 -10.32357 -2.1192 58.34138 -48.64327 51.62242 113.88444 77.56528 23.76835 -4.41086 -1.21063 5.87954 -44.39243 89.98359 -81.64176 -2.92547 6.78294 81.07726 -15.44111 -14.82845 -87.12972 -9.9333 -3.57546 -4.14581 85.49939 18.89643 0.07086 -97.28537 -8.5816 3.83335 4.20565
